<svg width="46" height="65" viewBox="0 0 46 65" fill="none" xmlns="http://www.w3.org/2000/svg">
<path d="M23.9602 1.57343C23.7841 1.36786 23.5657 1.20284 23.3198 1.08969C23.074 0.97654 22.8066 0.917953 22.5359 0.917953C22.2653 0.917953 21.9979 0.97654 21.752 1.08969C21.5062 1.20284 21.2877 1.36786 21.1117 1.57343C16.1648 7.35937 0.0351562 27.3625 0.0351562 42.1797C0.0351562 55.9875 8.72891 64.6797 22.5352 64.6797C36.3414 64.6797 45.0352 55.9875 45.0352 42.1797C45.0352 27.3625 28.9055 7.35937 23.9602 1.57343ZM25.0352 56.5547C24.7348 56.5553 24.4388 56.4839 24.1718 56.3462C23.9049 56.2086 23.675 56.0089 23.5013 55.7639C23.3276 55.5189 23.2154 55.2357 23.174 54.9383C23.1325 54.6409 23.1632 54.3378 23.2633 54.0547C23.3911 53.6852 23.6323 53.3656 23.9524 53.1411C24.2725 52.9167 24.6552 52.799 25.0461 52.8047C27.528 52.7993 29.9066 51.811 31.6616 50.0561C33.4165 48.3011 34.4048 45.9225 34.4102 43.4406C34.4044 43.0497 34.5222 42.667 34.7466 42.3469C34.971 42.0268 35.2907 41.7857 35.6602 41.6578C35.9433 41.5577 36.2463 41.5271 36.5438 41.5685C36.8412 41.6099 37.1244 41.7222 37.3694 41.8958C37.6144 42.0695 37.8141 42.2994 37.9517 42.5664C38.0893 42.8333 38.1608 43.1294 38.1602 43.4297C38.1564 46.9095 36.7724 50.2457 34.3118 52.7064C31.8512 55.167 28.515 56.551 25.0352 56.5547Z" fill="white"/>
</svg>
