<svg width="63" height="61" viewBox="0 0 63 61" fill="none" xmlns="http://www.w3.org/2000/svg">
<g clip-path="url(#clip0_1_62)">
<path d="M29.1305 41.2899L28.603 54.2349L28.533 55.0099L13.758 53.9899C12.8694 53.8985 12.0381 53.508 11.4005 52.8824C10.7049 52.2494 10.1481 51.479 9.76547 50.6199L9.74797 50.5774C9.49538 49.9704 9.32553 49.3322 9.24297 48.6799L9.23797 48.6424C9.16139 47.8611 9.21205 47.0725 9.38797 46.3074L9.37797 46.3549C9.55464 45.4866 9.69213 44.8416 9.79047 44.4199C10.0455 43.4999 10.303 42.7524 10.6005 42.0224L10.548 42.1699C10.9463 41.0916 11.1688 40.4724 11.2155 40.3124C13.0471 40.5907 19.0171 40.9174 29.1255 41.2924L29.1305 41.2899ZM15.513 20.6774L21.8455 34.0099L16.6755 30.7749C15.3037 32.33 14.0312 33.9699 12.8655 35.6849L12.7555 35.8574C11.8755 37.1149 11.0255 38.5574 10.2905 40.0624L10.2055 40.2549C9.64213 41.4932 9.17964 42.6016 8.81797 43.5799C8.53701 44.271 8.32352 44.9877 8.18047 45.7199L8.16797 45.7974L8.02797 46.5349L1.34547 33.9774C0.954223 33.3948 0.735016 32.7138 0.712969 32.0124V32.0049C0.666778 31.436 0.740011 30.8638 0.927969 30.3249L0.920469 30.3549L1.20047 29.7224C2.02547 28.2457 3.36214 26.0449 5.21047 23.1199L0.292969 20.0824L15.513 20.6774ZM58.813 38.8649L52.2105 51.4924C51.9474 52.1443 51.5065 52.7091 50.938 53.1224L50.928 53.1299C50.4863 53.4781 49.9719 53.7224 49.423 53.8449L49.398 53.8499L48.7655 53.9899C47.1005 54.1532 44.533 54.2907 41.063 54.4024L41.343 60.1799L33.253 47.2699L40.6805 34.5349L40.9255 40.6199C44.2922 40.9886 47.686 41.0438 51.063 40.7849L50.878 40.7974C52.9738 40.6637 55.043 40.2561 57.033 39.5849L56.863 39.6349L58.813 38.8649ZM31.208 6.35989C30.108 7.83656 27.0005 12.9374 21.8855 21.6624L10.743 15.0849L10.0755 14.6724L17.9905 2.14989C18.4905 1.40489 19.2155 0.847391 20.068 0.569891L20.0955 0.562391C21.0041 0.231289 21.9764 0.112424 22.938 0.214891L22.9105 0.212391C23.538 0.267391 24.118 0.414891 24.6555 0.639891L24.618 0.624891C25.1855 0.854891 25.6655 1.10489 26.1205 1.38989L26.0805 1.36739C26.6255 1.73239 27.103 2.11489 27.543 2.53239L27.538 2.52739C28.1013 3.04406 28.5238 3.44823 28.8055 3.73989C29.0871 4.03156 29.5096 4.49406 30.073 5.12739C30.6413 5.76073 31.0196 6.17156 31.208 6.35989ZM54.248 17.1574L61.7055 29.9274C62.13 30.7622 62.2829 31.7089 62.143 32.6349L62.1455 32.6099C62.0109 33.547 61.6758 34.4441 61.163 35.2399L61.178 35.2149C60.8573 35.6992 60.4692 36.1352 60.0255 36.5099L60.0155 36.5174C59.6093 36.8686 59.1773 37.1887 58.723 37.4749L58.678 37.4999C58.193 37.7874 57.628 38.0474 57.038 38.2524L56.9705 38.2724C56.2555 38.5307 55.7055 38.7182 55.3205 38.8349C54.9355 38.9516 54.3313 39.1157 53.508 39.3274L51.8905 39.7399C51.0921 38.0516 47.9846 32.9391 42.568 24.4024L53.578 17.5424L54.248 17.1574ZM49.218 9.20739L54.213 6.28739L46.4755 19.4099L31.733 18.7074L37.0455 15.6824C36.2585 13.587 35.3323 11.5466 34.273 9.57489L34.408 9.84989C33.6113 8.30126 32.6996 6.81458 31.6805 5.40239L31.7505 5.50489C30.9421 4.41323 30.1855 3.47489 29.4805 2.68989C28.9817 2.10686 28.4366 1.5651 27.8505 1.06989L27.8305 1.05239L27.233 0.594891L41.4705 0.629891C42.1803 0.553537 42.897 0.685581 43.533 1.00989L43.513 0.999891C44.0555 1.24489 44.513 1.58489 44.888 2.00239L44.8905 2.00739L45.278 2.53489C46.193 3.95822 47.5063 6.18239 49.218 9.20739Z" fill="white"/>
</g>
<defs>
<clipPath id="clip0_1_62">
<rect width="62.5" height="60" fill="white" transform="translate(0.285156 0.179688)"/>
</clipPath>
</defs>
</svg>
