<svg width="76" height="61" viewBox="0 0 76 61" fill="none" xmlns="http://www.w3.org/2000/svg">
<path d="M40.5633 11.1109C40.7034 9.17081 41.3441 7.30015 42.4229 5.68156C43.5018 4.06298 44.9819 2.75178 46.7187 1.87595C48.4556 1.00013 50.3898 0.589609 52.3327 0.684469C54.2756 0.779329 56.1606 1.37633 57.8039 2.41718C57.9918 2.54011 58.1431 2.71137 58.2419 2.91297C58.3407 3.11457 58.3834 3.33906 58.3655 3.56286C58.3476 3.78667 58.2698 4.00152 58.1402 4.18484C58.0105 4.36816 57.8339 4.51319 57.6289 4.60468C54.7723 5.8899 52.3474 7.97248 50.6456 10.6023C48.9438 13.2321 48.0373 16.2973 48.0352 19.4297C48.0352 19.7953 48.0352 20.1609 48.0727 20.5203C48.0899 20.7475 48.0447 20.975 47.942 21.1783C47.8393 21.3817 47.683 21.5531 47.49 21.6741C47.297 21.795 47.0746 21.8609 46.8468 21.8647C46.619 21.8684 46.3946 21.8099 46.1977 21.6953C44.356 20.6419 42.8498 19.0892 41.8528 17.2163C40.8559 15.3435 40.4088 13.2269 40.5633 11.1109ZM75.5352 43.3703C75.5396 44.7988 75.1439 46.2001 74.3927 47.4152C73.6415 48.6303 72.565 49.6107 71.2852 50.2453L71.1477 50.3078L59.0133 55.4766C58.8934 55.5294 58.7689 55.5712 58.6414 55.6016L38.6414 60.6016C38.4433 60.6525 38.2397 60.6788 38.0352 60.6797H5.53516C4.20907 60.6797 2.9373 60.1529 1.99962 59.2152C1.06194 58.2775 0.535156 57.0058 0.535156 55.6797V43.1797C0.535156 41.8536 1.06194 40.5818 1.99962 39.6441C2.9373 38.7065 4.20907 38.1797 5.53516 38.1797H14.5008L21.5695 31.1078C22.4964 30.1768 23.5986 29.4386 24.8124 28.936C26.0263 28.4335 27.3277 28.1764 28.6414 28.1797H44.2852C45.6057 28.1795 46.9091 28.4783 48.0978 29.0535C49.2864 29.6288 50.3295 30.4656 51.1487 31.5013C51.968 32.537 52.5422 33.7447 52.8283 35.0339C53.1144 36.3231 53.105 37.6603 52.8008 38.9453L65.8758 35.9391C67.014 35.6376 68.2063 35.6016 69.3607 35.8337C70.5151 36.0659 71.6007 36.56 72.534 37.2779C73.4672 37.9959 74.2232 38.9186 74.7435 39.9749C75.2638 41.0312 75.5347 42.1928 75.5352 43.3703ZM70.5352 43.3703C70.5348 42.9569 70.4391 42.5492 70.2557 42.1788C70.0723 41.8084 69.806 41.4852 69.4774 41.2343C69.1489 40.9835 68.767 40.8117 68.3613 40.7323C67.9556 40.6529 67.5371 40.6681 67.1383 40.7766L67.0414 40.8016L46.1039 45.6172C45.9203 45.6582 45.7327 45.6791 45.5445 45.6797H35.5352C34.8721 45.6797 34.2362 45.4163 33.7674 44.9474C33.2985 44.4786 33.0352 43.8427 33.0352 43.1797C33.0352 42.5166 33.2985 41.8808 33.7674 41.4119C34.2362 40.9431 34.8721 40.6797 35.5352 40.6797H44.2852C45.2797 40.6797 46.2335 40.2846 46.9368 39.5813C47.6401 38.8781 48.0352 37.9242 48.0352 36.9297C48.0352 35.9351 47.6401 34.9813 46.9368 34.278C46.2335 33.5748 45.2797 33.1797 44.2852 33.1797H28.6414C27.9846 33.1776 27.3338 33.3061 26.7271 33.5577C26.1203 33.8093 25.5696 34.179 25.107 34.6453L18.0352 41.7141V55.6797H37.7227L57.232 50.8016L69.107 45.7453C69.5393 45.5176 69.9009 45.1758 70.1526 44.7572C70.4044 44.3385 70.5367 43.8588 70.5352 43.3703ZM53.0352 19.4297C53.0352 21.6547 53.695 23.8298 54.9311 25.6798C56.1673 27.5299 57.9243 28.9718 59.98 29.8233C62.0356 30.6748 64.2976 30.8976 66.4799 30.4635C68.6622 30.0294 70.6668 28.958 72.2401 27.3846C73.8134 25.8113 74.8849 23.8067 75.319 21.6244C75.7531 19.4422 75.5303 17.1802 74.6788 15.1245C73.8273 13.0688 72.3854 11.3118 70.5353 10.0757C68.6853 8.83948 66.5102 8.17968 64.2852 8.17968C61.3015 8.17968 58.44 9.36495 56.3302 11.4747C54.2204 13.5845 53.0352 16.446 53.0352 19.4297Z" fill="white"/>
</svg>
