<svg width="81" height="81" viewBox="0 0 81 81" fill="none" xmlns="http://www.w3.org/2000/svg">
<g clip-path="url(#clip0_1_54)">
<path d="M40.5633 18.1109C40.7034 16.1708 41.3441 14.3001 42.4229 12.6816C43.5018 11.063 44.9819 9.75178 46.7187 8.87595C48.4556 8.00013 50.3898 7.58961 52.3327 7.68447C54.2756 7.77933 56.1606 8.37633 57.8039 9.41718C57.9918 9.54011 58.1431 9.71137 58.2419 9.91297C58.3407 10.1146 58.3834 10.3391 58.3655 10.5629C58.3476 10.7867 58.2698 11.0015 58.1402 11.1848C58.0105 11.3682 57.8339 11.5132 57.6289 11.6047C54.7723 12.8899 52.3474 14.9725 50.6456 17.6023C48.9438 20.2321 48.0373 23.2973 48.0352 26.4297C48.0352 26.7953 48.0352 27.1609 48.0727 27.5203C48.0899 27.7475 48.0447 27.975 47.942 28.1783C47.8393 28.3817 47.683 28.5531 47.49 28.6741C47.297 28.795 47.0746 28.8609 46.8468 28.8647C46.619 28.8684 46.3946 28.8099 46.1977 28.6953C44.356 27.6419 42.8498 26.0892 41.8528 24.2163C40.8559 22.3435 40.4088 20.2269 40.5633 18.1109ZM75.5352 50.3703C75.5396 51.7988 75.1439 53.2001 74.3927 54.4152C73.6415 55.6303 72.565 56.6107 71.2852 57.2453L71.1477 57.3078L59.0133 62.4766C58.8934 62.5294 58.7689 62.5712 58.6414 62.6016L38.6414 67.6016C38.4433 67.6525 38.2397 67.6788 38.0352 67.6797H5.53516C4.20907 67.6797 2.9373 67.1529 1.99962 66.2152C1.06194 65.2775 0.535156 64.0058 0.535156 62.6797V50.1797C0.535156 48.8536 1.06194 47.5818 1.99962 46.6441C2.9373 45.7065 4.20907 45.1797 5.53516 45.1797H14.5008L21.5695 38.1078C22.4964 37.1768 23.5986 36.4386 24.8124 35.936C26.0263 35.4335 27.3277 35.1764 28.6414 35.1797H44.2852C45.6057 35.1795 46.9091 35.4783 48.0978 36.0535C49.2864 36.6288 50.3295 37.4656 51.1487 38.5013C51.968 39.537 52.5422 40.7447 52.8283 42.0339C53.1144 43.3231 53.105 44.6603 52.8008 45.9453L65.8758 42.9391C67.014 42.6376 68.2063 42.6016 69.3607 42.8337C70.5151 43.0659 71.6007 43.56 72.534 44.2779C73.4672 44.9959 74.2232 45.9186 74.7435 46.9749C75.2638 48.0312 75.5347 49.1928 75.5352 50.3703ZM70.5352 50.3703C70.5348 49.9569 70.4391 49.5492 70.2557 49.1788C70.0723 48.8084 69.806 48.4852 69.4774 48.2343C69.1489 47.9835 68.767 47.8117 68.3613 47.7323C67.9556 47.6529 67.5371 47.6681 67.1383 47.7766L67.0414 47.8016L46.1039 52.6172C45.9203 52.6582 45.7327 52.6791 45.5445 52.6797H35.5352C34.8721 52.6797 34.2362 52.4163 33.7674 51.9474C33.2985 51.4786 33.0352 50.8427 33.0352 50.1797C33.0352 49.5166 33.2985 48.8808 33.7674 48.4119C34.2362 47.9431 34.8721 47.6797 35.5352 47.6797H44.2852C45.2797 47.6797 46.2335 47.2846 46.9368 46.5813C47.6401 45.8781 48.0352 44.9242 48.0352 43.9297C48.0352 42.9351 47.6401 41.9813 46.9368 41.278C46.2335 40.5748 45.2797 40.1797 44.2852 40.1797H28.6414C27.9846 40.1776 27.3338 40.3061 26.7271 40.5577C26.1203 40.8093 25.5696 41.179 25.107 41.6453L18.0352 48.7141V62.6797H37.7227L57.232 57.8016L69.107 52.7453C69.5393 52.5176 69.9009 52.1758 70.1526 51.7572C70.4044 51.3385 70.5367 50.8588 70.5352 50.3703ZM53.0352 26.4297C53.0352 28.6547 53.695 30.8298 54.9311 32.6798C56.1673 34.5299 57.9243 35.9718 59.98 36.8233C62.0356 37.6748 64.2976 37.8976 66.4799 37.4635C68.6622 37.0294 70.6668 35.958 72.2401 34.3846C73.8134 32.8113 74.8849 30.8067 75.319 28.6244C75.7531 26.4422 75.5303 24.1802 74.6788 22.1245C73.8273 20.0688 72.3854 18.3118 70.5353 17.0757C68.6853 15.8395 66.5102 15.1797 64.2852 15.1797C61.3015 15.1797 58.44 16.3649 56.3302 18.4747C54.2204 20.5845 53.0352 23.446 53.0352 26.4297Z" fill="white"/>
</g>
<defs>
<clipPath id="clip0_1_54">
<rect width="80" height="80" fill="white" transform="translate(0.535156 0.179688)"/>
</clipPath>
</defs>
</svg>
